<svg width="32" height="32" viewBox="0 0 32 32" fill="none" xmlns="http://www.w3.org/2000/svg">
<path d="M7.09545 12.9105C10.3137 7.2159 11.9228 4.36861 14.1309 3.63567C15.3456 3.23245 16.6541 3.23245 17.8688 3.63567C20.0769 4.36861 21.686 7.2159 24.9042 12.9105C28.1225 18.6051 29.7316 21.4524 29.2489 23.7724C28.9833 25.0487 28.3291 26.2064 27.3799 27.0795C25.6545 28.6666 22.4363 28.6666 15.9998 28.6666C9.56337 28.6666 6.34513 28.6666 4.61979 27.0795C3.67061 26.2064 3.01636 25.0487 2.7508 23.7724C2.2681 21.4524 3.87721 18.6051 7.09545 12.9105Z" stroke="#FF0420" stroke-width="2"/>
<path d="M15.989 21.3333H16.001" stroke="#FF0420" stroke-width="2.66667" stroke-linecap="round" stroke-linejoin="round"/>
<path d="M16 17.3333L16 11.9999" stroke="#FF0420" stroke-width="2" stroke-linecap="round" stroke-linejoin="round"/>
</svg>
