<svg width="20" height="20" viewBox="0 0 20 20" fill="none" xmlns="http://www.w3.org/2000/svg">
<path d="M8.33325 11.1111C8.33325 10.8528 8.33325 10.7236 8.36165 10.6177C8.4387 10.3301 8.66333 10.1055 8.9509 10.0284C9.05687 10 9.18604 10 9.44436 10H10.5555C10.8138 10 10.943 10 11.0489 10.0284C11.3365 10.1055 11.5611 10.3301 11.6382 10.6177C11.6666 10.7236 11.6666 10.8528 11.6666 11.1111V11.6667C11.6666 12.5871 10.9204 13.3333 9.99992 13.3333C9.07944 13.3333 8.33325 12.5871 8.33325 11.6667V11.1111Z" stroke="#001E62" stroke-width="1.5" stroke-linecap="round" stroke-linejoin="round"/>
<path d="M11.5833 11.2501H12.5687C13.6389 11.2501 14.174 11.2501 14.6296 11.1536C15.9483 10.8742 17.0241 10.0173 17.4948 8.87135C17.6575 8.47544 17.7239 7.99635 17.8566 7.03816C17.9064 6.67846 17.9313 6.49861 17.9074 6.35149C17.8376 5.92303 17.4942 5.57206 17.0317 5.45645C16.8729 5.41675 16.672 5.41675 16.2702 5.41675H3.7296C3.32784 5.41675 3.12696 5.41675 2.96814 5.45645C2.5056 5.57206 2.16223 5.92303 2.09245 6.35149C2.06849 6.49861 2.09341 6.67846 2.14324 7.03816C2.27598 7.99635 2.34235 8.47544 2.50499 8.87135C2.97575 10.0173 4.05157 10.8742 5.37022 11.1536C5.8258 11.2501 6.3609 11.2501 7.43111 11.2501H8.41658" stroke="#001E62" stroke-width="1.5"/>
<path d="M2.91675 9.58325V11.2499C2.91675 14.3926 2.91675 15.964 3.83882 16.9403C4.76089 17.9166 6.24494 17.9166 9.21304 17.9166H10.7871C13.7552 17.9166 15.2393 17.9166 16.1613 16.9403C17.0834 15.964 17.0834 14.3926 17.0834 11.2499V9.58325" stroke="#001E62" stroke-width="1.5" stroke-linecap="round" stroke-linejoin="round"/>
<path d="M12.9166 5.41659L12.8522 5.12224C12.5314 3.65553 12.3709 2.92218 11.989 2.50271C11.6071 2.08325 11.0998 2.08325 10.0852 2.08325H9.91463C8.90004 2.08325 8.39274 2.08325 8.01082 2.50271C7.6289 2.92218 7.46848 3.65553 7.14764 5.12224L7.08325 5.41659" stroke="#001E62" stroke-width="1.5"/>
</svg>
