<svg width="16" height="16" viewBox="0 0 16 16" fill="none" xmlns="http://www.w3.org/2000/svg">
<path d="M12 1.33325V2.66659M4 1.33325V2.66659" stroke="#202327" stroke-linecap="round" stroke-linejoin="round"/>
<path d="M7.99705 8.66675H8.00303M7.99705 11.3334H8.00303M10.6607 8.66675H10.6667M5.33337 8.66675H5.33936M5.33337 11.3334H5.33936" stroke="#202327" stroke-width="1.5" stroke-linecap="round" stroke-linejoin="round"/>
<path d="M2.33337 5.33325H13.6667" stroke="#202327" stroke-linecap="round" stroke-linejoin="round"/>
<path d="M1.66663 8.16216C1.66663 5.25729 1.66663 3.80486 2.50137 2.90243C3.33612 2 4.67962 2 7.36663 2H8.63329C11.3203 2 12.6638 2 13.4985 2.90243C14.3333 3.80486 14.3333 5.25729 14.3333 8.16216V8.5045C14.3333 11.4094 14.3333 12.8618 13.4985 13.7642C12.6638 14.6667 11.3203 14.6667 8.63329 14.6667H7.36663C4.67962 14.6667 3.33612 14.6667 2.50137 13.7642C1.66663 12.8618 1.66663 11.4094 1.66663 8.5045V8.16216Z" stroke="#202327" stroke-linecap="round" stroke-linejoin="round"/>
<path d="M2 5.33325H14" stroke="#202327" stroke-linecap="round" stroke-linejoin="round"/>
</svg>
