<svg width="24" height="24" viewBox="0 0 24 24" fill="none" xmlns="http://www.w3.org/2000/svg">
<path d="M18 2V4M6 2V4" stroke="white" stroke-width="1.5" stroke-linecap="round" stroke-linejoin="round"/>
<path d="M2.5 12.2432C2.5 7.88594 2.5 5.70728 3.75212 4.35364C5.00424 3 7.01949 3 11.05 3H12.95C16.9805 3 18.9958 3 20.2479 4.35364C21.5 5.70728 21.5 7.88594 21.5 12.2432V12.7568C21.5 17.1141 21.5 19.2927 20.2479 20.6464C18.9958 22 16.9805 22 12.95 22H11.05C7.01949 22 5.00424 22 3.75212 20.6464C2.5 19.2927 2.5 17.1141 2.5 12.7568V12.2432Z" stroke="white" stroke-width="1.5" stroke-linecap="round" stroke-linejoin="round"/>
<path d="M6 8H18" stroke="white" stroke-width="1.5" stroke-linecap="round" stroke-linejoin="round"/>
<path d="M7.552 18C7.49867 18 7.45333 17.9813 7.416 17.944C7.37867 17.9067 7.36 17.8613 7.36 17.808V17.4C7.36 17.352 7.37067 17.296 7.392 17.232C7.41867 17.1627 7.47467 17.0933 7.56 17.024L8.824 15.768C9.176 15.4907 9.45867 15.256 9.672 15.064C9.89067 14.8667 10.048 14.688 10.144 14.528C10.2453 14.3627 10.296 14.2 10.296 14.04C10.296 13.8 10.2293 13.6053 10.096 13.456C9.968 13.3067 9.76267 13.232 9.48 13.232C9.29333 13.232 9.136 13.272 9.008 13.352C8.88 13.4267 8.77867 13.528 8.704 13.656C8.63467 13.784 8.58667 13.9253 8.56 14.08C8.54933 14.1493 8.52 14.1973 8.472 14.224C8.424 14.2507 8.376 14.264 8.328 14.264H7.616C7.568 14.264 7.528 14.248 7.496 14.216C7.464 14.184 7.448 14.1467 7.448 14.104C7.45333 13.8747 7.50133 13.6533 7.592 13.44C7.68267 13.2213 7.81333 13.0293 7.984 12.864C8.16 12.6933 8.37333 12.5573 8.624 12.456C8.87467 12.3547 9.15733 12.304 9.472 12.304C9.91467 12.304 10.28 12.3787 10.568 12.528C10.8613 12.6773 11.08 12.88 11.224 13.136C11.3733 13.392 11.448 13.68 11.448 14C11.448 14.2507 11.4 14.4827 11.304 14.696C11.208 14.904 11.0693 15.1067 10.888 15.304C10.7067 15.496 10.488 15.6933 10.232 15.896L9.096 17.048H11.376C11.4347 17.048 11.48 17.0667 11.512 17.104C11.5493 17.136 11.568 17.1813 11.568 17.24V17.808C11.568 17.8613 11.5493 17.9067 11.512 17.944C11.48 17.9813 11.4347 18 11.376 18H7.552ZM15.0584 18C15.0051 18 14.9598 17.9813 14.9224 17.944C14.8851 17.9067 14.8664 17.8613 14.8664 17.808V16.784H12.3304C12.2718 16.784 12.2238 16.7653 12.1864 16.728C12.1544 16.6907 12.1384 16.6453 12.1384 16.592V16.048C12.1384 16.016 12.1438 15.9787 12.1544 15.936C12.1704 15.888 12.1944 15.8453 12.2264 15.808L14.5864 12.536C14.6558 12.4453 14.7544 12.4 14.8824 12.4H15.7544C15.8078 12.4 15.8531 12.4187 15.8904 12.456C15.9278 12.4933 15.9464 12.5387 15.9464 12.592V15.84H16.6584C16.7224 15.84 16.7704 15.8587 16.8024 15.896C16.8398 15.928 16.8584 15.9733 16.8584 16.032V16.592C16.8584 16.6453 16.8398 16.6907 16.8024 16.728C16.7651 16.7653 16.7198 16.784 16.6664 16.784H15.9464V17.808C15.9464 17.8613 15.9278 17.9067 15.8904 17.944C15.8531 17.9813 15.8078 18 15.7544 18H15.0584ZM13.2504 15.872H14.8904V13.56L13.2504 15.872Z" fill="white"/>
</svg>
