<svg width="20" height="20" viewBox="0 0 20 20" fill="none" xmlns="http://www.w3.org/2000/svg">
<g clip-path="url(#clip0_596_3240)">
<path d="M3.14786 9.95205C2.35784 8.5745 1.97638 7.44965 1.74637 6.30943C1.40619 4.62306 2.18468 2.97575 3.47432 1.92464C4.01938 1.4804 4.6442 1.63218 4.96651 2.21041L5.69416 3.51584C6.27091 4.55055 6.55929 5.06791 6.50209 5.61641C6.44489 6.16491 6.05598 6.61163 5.27815 7.50509L3.14786 9.95205ZM3.14786 9.95205C4.74693 12.7403 7.25637 15.2511 10.0479 16.8521M10.0479 16.8521C11.4254 17.6421 12.5503 18.0235 13.6905 18.2535C15.3769 18.5937 17.0242 17.8152 18.0753 16.5256C18.5195 15.9805 18.3677 15.3557 17.7895 15.0334L16.4841 14.3058C15.4494 13.729 14.932 13.4406 14.3835 13.4978C13.835 13.555 13.3883 13.9439 12.4948 14.7218L10.0479 16.8521Z" stroke="#001E62" stroke-width="1.5" stroke-linejoin="round"/>
</g>
<defs>
<clipPath id="clip0_596_3240">
<rect width="20" height="20" rx="4" fill="white"/>
</clipPath>
</defs>
</svg>
