<svg width="16" height="16" viewBox="0 0 16 16" fill="none" xmlns="http://www.w3.org/2000/svg">
<g clip-path="url(#clip0_1107_5933)">
<path d="M4.66634 4.00024C3.85258 4.00268 3.40223 4.02215 3.03216 4.17748C2.51381 4.39504 2.09168 4.79693 1.84508 5.30764C1.64379 5.7245 1.61086 6.25858 1.54498 7.32674L1.44175 9.00054C1.27793 11.6568 1.19602 12.9849 1.97546 13.8258C2.75491 14.6666 4.06802 14.6666 6.69425 14.6666H9.30509C11.9313 14.6666 13.2444 14.6666 14.0239 13.8258C14.8033 12.9849 14.7214 11.6568 14.5576 9.00054L14.4544 7.32674C14.3885 6.25858 14.3556 5.7245 14.1543 5.30764C13.9077 4.79693 13.4855 4.39504 12.9672 4.17748C12.5971 4.02215 12.1468 4.00268 11.333 4.00024" stroke="#001E62" stroke-width="1.5" stroke-linecap="round"/>
<path d="M11.3327 4.66659L10.7421 3.19021C10.4873 2.55323 10.2656 1.83065 9.61045 1.50629C9.26095 1.33325 8.84041 1.33325 7.99935 1.33325C7.15828 1.33325 6.73775 1.33325 6.38825 1.50629C5.73309 1.83065 5.51136 2.55323 5.25657 3.19021L4.66602 4.66659" stroke="#001E62" stroke-width="1.5" stroke-linecap="round" stroke-linejoin="round"/>
<path d="M10.3327 9.33333C10.3327 10.622 9.28801 11.6667 7.99935 11.6667C6.71068 11.6667 5.66602 10.622 5.66602 9.33333C5.66602 8.04467 6.71068 7 7.99935 7C9.28801 7 10.3327 8.04467 10.3327 9.33333Z" stroke="#001E62" stroke-width="1.5"/>
<path d="M7.99987 4H8.00586" stroke="#001E62" stroke-width="2" stroke-linecap="round" stroke-linejoin="round"/>
</g>
<defs>
<clipPath id="clip0_1107_5933">
<rect width="16" height="16" fill="white"/>
</clipPath>
</defs>
</svg>
