<svg width="26" height="26" viewBox="0 0 26 26" fill="none" xmlns="http://www.w3.org/2000/svg">
<rect width="26" height="26" rx="13" fill="#EE3D69"/>
<path d="M7.66663 12.3333V14.9999C7.66663 17.1998 7.66663 18.2998 8.35004 18.9832C9.03346 19.6666 10.1334 19.6666 12.3333 19.6666H13.6666C15.8665 19.6666 16.9665 19.6666 17.6499 18.9832C18.3333 18.2998 18.3333 17.1998 18.3333 14.9999V12.3333" stroke="white" stroke-linecap="round" stroke-linejoin="round"/>
<path d="M7 11.0001C7 10.5016 7 10.2524 7.13397 10.0667C7.22174 9.94513 7.34798 9.84414 7.5 9.77393C7.73205 9.66675 8.04359 9.66675 8.66667 9.66675H17.3333C17.9564 9.66675 18.2679 9.66675 18.5 9.77393C18.652 9.84414 18.7783 9.94513 18.866 10.0667C19 10.2524 19 10.5016 19 11.0001C19 11.4985 19 11.7478 18.866 11.9334C18.7783 12.055 18.652 12.156 18.5 12.2262C18.2679 12.3334 17.9564 12.3334 17.3333 12.3334H8.66667C8.04359 12.3334 7.73205 12.3334 7.5 12.2262C7.34798 12.156 7.22174 12.055 7.13397 11.9334C7 11.7478 7 11.4985 7 11.0001Z" stroke="white" stroke-linejoin="round"/>
<path d="M9 7.52373C9 6.86625 9.53299 6.33325 10.1905 6.33325H10.4286C11.8487 6.33325 13 7.48452 13 8.90468V9.66659H11.1429C9.95939 9.66659 9 8.7072 9 7.52373Z" stroke="white" stroke-linejoin="round"/>
<path d="M17 7.52373C17 6.86625 16.467 6.33325 15.8095 6.33325H15.5714C14.1513 6.33325 13 7.48452 13 8.90468V9.66659H14.8571C16.0406 9.66659 17 8.7072 17 7.52373Z" stroke="white" stroke-linejoin="round"/>
<path d="M13 12.3333L13 19.6666" stroke="white" stroke-linecap="round" stroke-linejoin="round"/>
</svg>
