<svg width="20" height="20" viewBox="0 0 20 20" fill="none" xmlns="http://www.w3.org/2000/svg">
<path d="M10 3.75V5M10 5V6.25M10 5L11.25 5M10 5H8.75" stroke="#001E62" stroke-width="1.5" stroke-linecap="round"/>
<path d="M7.1549 2.15515C6.66675 2.6433 6.66675 3.42898 6.66675 5.00033C6.66675 6.57167 6.66675 7.35735 7.1549 7.8455C7.64306 8.33366 8.42873 8.33366 10.0001 8.33366C11.5714 8.33366 12.3571 8.33366 12.8453 7.8455C13.3334 7.35735 13.3334 6.57167 13.3334 5.00033C13.3334 3.42898 13.3334 2.6433 12.8453 2.15515C12.3571 1.66699 11.5714 1.66699 10.0001 1.66699C8.42873 1.66699 7.64306 1.66699 7.1549 2.15515Z" stroke="#001E62" stroke-width="1.5" stroke-linecap="round" stroke-linejoin="round"/>
<path d="M3.33325 18.3337L3.33325 9.97593C3.33325 7.21802 3.33325 5.83907 4.18752 4.98229C4.73046 4.43776 5.48371 4.23932 6.66659 4.16699M16.6666 18.3337L16.6666 9.97593C16.6666 7.21802 16.6666 5.83907 15.8123 4.98229C15.2694 4.43776 14.5161 4.23932 13.3333 4.16699" stroke="#001E62" stroke-width="1.5" stroke-linecap="round" stroke-linejoin="round"/>
<path d="M2.5 18.3335L17.5 18.3335" stroke="#001E62" stroke-width="1.5" stroke-linecap="round" stroke-linejoin="round"/>
<path d="M7.91675 18.3337V16.2503C7.91675 15.4715 7.91675 15.0821 8.08422 14.792C8.19393 14.602 8.35172 14.4442 8.54175 14.3345C8.83181 14.167 9.22123 14.167 10.0001 14.167C10.7789 14.167 11.1684 14.167 11.4584 14.3345C11.6484 14.4442 11.8062 14.602 11.9159 14.792C12.0834 15.0821 12.0834 15.4715 12.0834 16.2503V18.3337" stroke="#001E62" stroke-width="1.5" stroke-linecap="round"/>
<path d="M6.67422 10.8335H6.66675M10.0001 10.8335H9.99261M13.3344 10.8335H13.3269" stroke="#001E62" stroke-width="2" stroke-linecap="round" stroke-linejoin="round"/>
</svg>
