<svg width="20" height="20" viewBox="0 0 20 20" fill="none" xmlns="http://www.w3.org/2000/svg">
<path d="M5.83325 15C4.30915 15.3431 3.33325 15.8702 3.33325 16.4614C3.33325 17.4952 6.31802 18.3333 9.99992 18.3333C13.6818 18.3333 16.6666 17.4952 16.6666 16.4614C16.6666 15.8702 15.6907 15.3431 14.1666 15" stroke="#001E62" stroke-width="1.5" stroke-linecap="round"/>
<path d="M12.0834 7.50033C12.0834 8.65092 11.1507 9.58366 10.0001 9.58366C8.84949 9.58366 7.91675 8.65092 7.91675 7.50033C7.91675 6.34973 8.84949 5.41699 10.0001 5.41699C11.1507 5.41699 12.0834 6.34973 12.0834 7.50033Z" stroke="#001E62" stroke-width="1.5"/>
<path d="M11.0479 14.5783C10.7668 14.849 10.3912 15.0003 10.0002 15.0003C9.60924 15.0003 9.23357 14.849 8.9525 14.5783C6.37867 12.0843 2.92941 9.29827 4.61151 5.25344C5.521 3.06643 7.7042 1.66699 10.0002 1.66699C12.2962 1.66699 14.4794 3.06643 15.3889 5.25344C17.0689 9.29317 13.6281 12.0929 11.0479 14.5783Z" stroke="#001E62" stroke-width="1.5"/>
</svg>
