<svg width="20" height="20" viewBox="0 0 20 20" fill="none" xmlns="http://www.w3.org/2000/svg">
<g clip-path="url(#clip0_1207_3297)">
<path d="M5.83341 16.2501C5.83341 17.4007 4.90067 18.3334 3.75008 18.3334C2.59949 18.3334 1.66675 17.4007 1.66675 16.2501C1.66675 15.0995 2.59949 14.1667 3.75008 14.1667C4.90067 14.1667 5.83341 15.0995 5.83341 16.2501Z" stroke="#001E62" stroke-width="1.5"/>
<path d="M18.3334 16.2501C18.3334 17.4007 17.4007 18.3334 16.2501 18.3334C15.0995 18.3334 14.1667 17.4007 14.1667 16.2501C14.1667 15.0995 15.0995 14.1667 16.2501 14.1667C17.4007 14.1667 18.3334 15.0995 18.3334 16.2501Z" stroke="#001E62" stroke-width="1.5"/>
<path d="M16.25 14.1667C16.1101 12.1226 15.3292 11.6667 12.6892 11.6667H7.3108C4.67078 11.6667 3.8899 12.1226 3.75 14.1667" stroke="#001E62" stroke-width="1.5" stroke-linecap="round" stroke-linejoin="round"/>
<path d="M10 5.41675L10.8333 4.16675M13.75 5.41675C13.75 7.48782 12.0711 9.16675 10 9.16675C7.92893 9.16675 6.25 7.48782 6.25 5.41675C6.25 3.34568 7.92893 1.66675 10 1.66675C12.0711 1.66675 13.75 3.34568 13.75 5.41675Z" stroke="#001E62" stroke-width="1.5" stroke-linecap="round"/>
</g>
<defs>
<clipPath id="clip0_1207_3297">
<rect width="20" height="20" fill="white"/>
</clipPath>
</defs>
</svg>
