<svg width="20" height="20" viewBox="0 0 20 20" fill="none" xmlns="http://www.w3.org/2000/svg">
<g clip-path="url(#clip0_1207_3303)">
<path d="M4.16675 4.97135H6.79175M10.0001 4.97135H8.54175M6.79175 4.97135H8.54175M6.79175 4.97135V4.16675M8.54175 4.97135C8.23405 6.07169 7.5897 7.11184 6.85425 8.02594M4.97925 10.0001C5.57378 9.45339 6.24525 8.78288 6.85425 8.02594M6.85425 8.02594C6.47925 7.58629 5.95425 6.87495 5.80425 6.55311M6.85425 8.02594L7.97925 9.19548" stroke="#001E62" stroke-width="1.5" stroke-linecap="round" stroke-linejoin="round"/>
<path d="M5.85201 14.1482C5.89737 15.5816 6.05339 16.4608 6.59005 17.1147C6.72856 17.2835 6.88332 17.4383 7.0521 17.5768C7.97406 18.3334 9.34385 18.3334 12.0834 18.3334C14.823 18.3334 16.1928 18.3334 17.1147 17.5768C17.2835 17.4383 17.4383 17.2835 17.5768 17.1147C18.3334 16.1928 18.3334 14.823 18.3334 12.0834C18.3334 9.34385 18.3334 7.97406 17.5768 7.0521C17.4383 6.88332 17.2835 6.72856 17.1147 6.59005C16.4636 6.05571 15.5892 5.89873 14.1667 5.8526M5.85201 14.1482C4.41856 14.1028 3.53935 13.9468 2.88544 13.4101C2.71666 13.2716 2.56189 13.1168 2.42338 12.9481C1.66675 12.0261 1.66675 10.6563 1.66675 7.91675C1.66675 5.17718 1.66675 3.8074 2.42338 2.88544C2.56189 2.71666 2.71666 2.56189 2.88544 2.42338C3.8074 1.66675 5.17718 1.66675 7.91675 1.66675C10.6563 1.66675 12.0261 1.66675 12.9481 2.42338C13.1168 2.56189 13.2716 2.71666 13.4101 2.88544C13.9468 3.53935 14.1028 4.41856 14.1482 5.85201C14.1482 5.85201 14.1482 5.85201 14.1667 5.8526M5.85201 14.1482L14.1667 5.8526" stroke="#001E62" stroke-width="1.5"/>
<path d="M10.8333 15.8333L11.5277 14.1666M14.9999 15.8333L14.3055 14.1666M11.5277 14.1666L12.9166 10.8333L14.3055 14.1666M11.5277 14.1666H14.3055" stroke="#001E62" stroke-width="1.5" stroke-linecap="round" stroke-linejoin="round"/>
</g>
<defs>
<clipPath id="clip0_1207_3303">
<rect width="20" height="20" fill="white"/>
</clipPath>
</defs>
</svg>
