<svg width="20" height="20" viewBox="0 0 20 20" fill="none" xmlns="http://www.w3.org/2000/svg">
<path d="M15.5135 16.6667H15.922C16.8802 16.6667 17.6423 16.2302 18.3267 15.6197C20.0651 14.0689 15.9785 12.5001 14.5834 12.5001M12.9167 4.22405C13.106 4.18652 13.3025 4.16675 13.504 4.16675C15.0206 4.16675 16.2501 5.28604 16.2501 6.66675C16.2501 8.04746 15.0206 9.16675 13.504 9.16675C13.3025 9.16675 13.106 9.14697 12.9167 9.10944" stroke="#001E62" stroke-width="1.5" stroke-linecap="round"/>
<path d="M3.73443 13.4261C2.75195 13.9526 0.175948 15.0277 1.7449 16.3729C2.51133 17.0301 3.36492 17.5001 4.4381 17.5001H10.5619C11.6351 17.5001 12.4887 17.0301 13.2551 16.3729C14.8241 15.0277 12.2481 13.9526 11.2656 13.4261C8.96167 12.1914 6.03832 12.1914 3.73443 13.4261Z" stroke="#001E62" stroke-width="1.5"/>
<path d="M10.8333 6.25008C10.8333 8.09103 9.34095 9.58341 7.5 9.58341C5.65905 9.58341 4.16667 8.09103 4.16667 6.25008C4.16667 4.40913 5.65905 2.91675 7.5 2.91675C9.34095 2.91675 10.8333 4.40913 10.8333 6.25008Z" stroke="#001E62" stroke-width="1.5"/>
</svg>
